<svg version="1.1" xmlns="http://www.w3.org/2000/svg" viewBox="0 0 346 356" width="692" height="712">
  <!-- svg-source:excalidraw -->
  
  <defs>
    <style>
      @font-face {
        font-family: "Virgil";
        src: url("https://excalidraw.com/Virgil.woff2");
      }
      @font-face {
        font-family: "Cascadia";
        src: url("https://excalidraw.com/Cascadia.woff2");
      }
    </style>
  </defs>
  <rect x="0" y="0" width="346" height="356" fill="#ffffff"></rect><g stroke-linecap="round" transform="translate(11 10) rotate(0 90 50)"><path d="M0 0 C55.37 0, 110.74 0, 180 0 M0 0 C67.32 0, 134.65 0, 180 0 M180 0 C180 35.48, 180 70.97, 180 100 M180 0 C180 32.84, 180 65.68, 180 100 M180 100 C120.07 100, 60.14 100, 0 100 M180 100 C122.25 100, 64.51 100, 0 100 M0 100 C0 70.87, 0 41.73, 0 0 M0 100 C0 75.15, 0 50.3, 0 0" stroke="#364fc7" stroke-width="1" fill="none"></path></g><g transform="translate(16 47) rotate(0 85 13)"><text x="85" y="18" font-family="Virgil, Segoe UI Emoji" font-size="20px" fill="#364fc7" text-anchor="middle" style="white-space: pre;" direction="ltr">Service</text></g><g stroke-linecap="round" transform="translate(10 188) rotate(0 163 79)"><path d="M0 0 C111.87 0, 223.75 0, 326 0 M326 0 C326 38.62, 326 77.25, 326 158 M326 158 C207.25 158, 88.51 158, 0 158 M0 158 C0 114.55, 0 71.09, 0 0" stroke="#5c940d" stroke-width="1.5" fill="none" stroke-dasharray="8 9"></path></g><g stroke-linecap="round" transform="translate(144 245) rotate(0 83 39.5)"><path d="M0 0 C44.73 0, 89.46 0, 166 0 M0 0 C40.14 0, 80.28 0, 166 0 M166 0 C166 16.32, 166 32.64, 166 79 M166 0 C166 24.21, 166 48.41, 166 79 M166 79 C111.35 79, 56.71 79, 0 79 M166 79 C100.15 79, 34.31 79, 0 79 M0 79 C0 52.79, 0 26.58, 0 0 M0 79 C0 59.16, 0 39.33, 0 0" stroke="#364fc7" stroke-width="1" fill="none"></path></g><g transform="translate(149 271.5) rotate(0 78 13)"><text x="78" y="18" font-family="Virgil, Segoe UI Emoji" font-size="20px" fill="#364fc7" text-anchor="middle" style="white-space: pre;" direction="ltr">ServiceImpl</text></g><g transform="translate(234 200) rotate(0 31.63043478260869 15)"><text x="0" y="20.99999999999999" font-family="Virgil, Segoe UI Emoji" font-size="23.478260869565215px" fill="#5c940d" text-anchor="start" style="white-space: pre;" direction="ltr">Proxy</text></g><g stroke-linecap="round" transform="translate(25 255) rotate(0 20.5 23.5)"><path d="M4.92 8.25 C4.92 8.25, 4.92 8.25, 4.92 8.25 M4.92 8.25 C4.92 8.25, 4.92 8.25, 4.92 8.25 M0.72 19.18 C5.23 14, 9.73 8.82, 17.12 0.31 M0.72 19.18 C5.21 14.01, 9.7 8.85, 17.12 0.31 M1.12 24.82 C8.12 16.77, 15.12 8.72, 21.45 1.43 M1.12 24.82 C7.86 17.06, 14.61 9.3, 21.45 1.43 M2.17 29.71 C10.52 20.1, 18.88 10.48, 26.44 1.79 M2.17 29.71 C10.1 20.58, 18.03 11.46, 26.44 1.79 M3.87 33.84 C13.23 23.08, 22.59 12.31, 30.12 3.65 M3.87 33.84 C9.38 27.51, 14.89 21.17, 30.12 3.65 M4.92 38.73 C12.21 30.36, 19.49 21.98, 33.79 5.52 M4.92 38.73 C12.39 30.14, 19.86 21.55, 33.79 5.52 M7.29 42.11 C13.33 35.16, 19.37 28.21, 36.15 8.9 M7.29 42.11 C14.76 33.51, 22.24 24.91, 36.15 8.9 M10.96 43.98 C17.37 36.61, 23.78 29.24, 38.52 12.28 M10.96 43.98 C18.84 34.92, 26.71 25.86, 38.52 12.28 M13.98 46.6 C21.12 38.39, 28.26 30.18, 40.22 16.42 M13.98 46.6 C21.45 38.01, 28.93 29.41, 40.22 16.42 M18.31 47.72 C26.37 38.45, 34.43 29.17, 41.93 20.55 M18.31 47.72 C24.29 40.84, 30.27 33.96, 41.93 20.55 M24.61 46.57 C28.5 42.1, 32.38 37.63, 41.01 27.7 M24.61 46.57 C28.24 42.4, 31.87 38.22, 41.01 27.7 M7.51 41.66 C7.51 41.66, 7.51 41.66, 7.51 41.66 M7.51 41.66 C7.51 41.66, 7.51 41.66, 7.51 41.66 M17.68 45.2 C12.65 40.83, 7.61 36.46, 1.83 31.43 M17.68 45.2 C12.45 40.66, 7.22 36.11, 1.83 31.43 M24.83 46.12 C18.34 40.48, 11.86 34.84, 1.44 25.78 M24.83 46.12 C17.16 39.46, 9.49 32.79, 1.44 25.78 M28.97 44.42 C22.18 38.51, 15.39 32.61, 1.8 20.8 M28.97 44.42 C23.49 39.66, 18.01 34.89, 1.8 20.8 M32.34 42.05 C22.26 33.28, 12.17 24.52, 1.4 15.15 M32.34 42.05 C24.13 34.91, 15.92 27.78, 1.4 15.15 M35.72 39.69 C26.27 31.47, 16.81 23.25, 3.27 11.48 M35.72 39.69 C24.24 29.71, 12.75 19.72, 3.27 11.48 M38.35 36.67 C26.86 26.69, 15.38 16.71, 5.14 7.8 M38.35 36.67 C31.59 30.8, 24.84 24.93, 5.14 7.8 M40.22 33 C33.03 26.75, 25.84 20.5, 7.76 4.79 M40.22 33 C32.64 26.41, 25.07 19.83, 7.76 4.79 M42.09 29.32 C32.73 21.19, 23.38 13.06, 11.14 2.42 M42.09 29.32 C31.96 20.52, 21.83 11.71, 11.14 2.42 M40.94 23.02 C31.91 15.18, 22.89 7.33, 14.52 0.06 M40.94 23.02 C35.27 18.1, 29.6 13.17, 14.52 0.06 M41.3 18.04 C33.22 11.01, 25.13 3.99, 20.17 -0.33 M41.3 18.04 C36 13.43, 30.7 8.82, 20.17 -0.33 M36.37 8.46 C34.09 6.47, 31.81 4.49, 28.07 1.24 M36.37 8.46 C33.06 5.57, 29.74 2.68, 28.07 1.24" stroke="#82c91e" stroke-width="0.5" fill="none"></path><path d="M41 23.5 C41 24.86, 40.89 26.24, 40.69 27.58 C40.48 28.92, 40.17 30.26, 39.76 31.54 C39.36 32.82, 38.85 34.07, 38.25 35.25 C37.66 36.43, 36.97 37.56, 36.2 38.61 C35.44 39.65, 34.59 40.63, 33.68 41.5 C32.77 42.38, 31.78 43.17, 30.75 43.85 C29.72 44.53, 28.63 45.12, 27.51 45.58 C26.4 46.05, 25.23 46.41, 24.06 46.64 C22.89 46.88, 21.69 47, 20.5 47 C19.31 47, 18.11 46.88, 16.94 46.64 C15.77 46.41, 14.6 46.05, 13.49 45.58 C12.37 45.12, 11.28 44.53, 10.25 43.85 C9.22 43.17, 8.23 42.38, 7.32 41.5 C6.41 40.63, 5.56 39.65, 4.8 38.61 C4.03 37.56, 3.34 36.43, 2.75 35.25 C2.15 34.07, 1.64 32.82, 1.24 31.54 C0.83 30.26, 0.52 28.92, 0.31 27.58 C0.11 26.24, 0 24.86, 0 23.5 C0 22.14, 0.11 20.76, 0.31 19.42 C0.52 18.08, 0.83 16.74, 1.24 15.46 C1.64 14.18, 2.15 12.93, 2.75 11.75 C3.34 10.57, 4.03 9.44, 4.8 8.39 C5.56 7.35, 6.41 6.37, 7.32 5.5 C8.23 4.62, 9.22 3.83, 10.25 3.15 C11.28 2.47, 12.37 1.88, 13.49 1.42 C14.6 0.95, 15.77 0.59, 16.94 0.36 C18.11 0.12, 19.31 0, 20.5 0 C21.69 0, 22.89 0.12, 24.06 0.36 C25.23 0.59, 26.4 0.95, 27.51 1.42 C28.63 1.88, 29.72 2.47, 30.75 3.15 C31.78 3.83, 32.77 4.62, 33.68 5.5 C34.59 6.37, 35.44 7.35, 36.2 8.39 C36.97 9.44, 37.66 10.57, 38.25 11.75 C38.85 12.93, 39.36 14.18, 39.76 15.46 C40.17 16.74, 40.48 18.08, 40.69 19.42 C40.89 20.76, 40.95 22.82, 41 23.5 C41.05 24.18, 41.05 22.82, 41 23.5" stroke="#5c940d" stroke-width="1.5" fill="none" stroke-dasharray="8 9"></path></g><g stroke-linecap="round"><g transform="translate(70.85436954529473 282.1432497594183) rotate(0 33.634543622414355 0.18938177964400893)"><path d="M0 0 C11.21 0.06, 56.06 0.32, 67.27 0.38" stroke="#5c940d" stroke-width="1.5" fill="none" stroke-dasharray="8 9"></path></g><g transform="translate(70.85436954529473 282.1432497594183) rotate(0 33.634543622414355 0.18938177964400893)"><path d="M39.02 10.48 C47.13 7.58, 55.24 4.68, 67.27 0.38" stroke="#5c940d" stroke-width="1.5" fill="none"></path></g><g transform="translate(70.85436954529473 282.1432497594183) rotate(0 33.634543622414355 0.18938177964400893)"><path d="M39.14 -10.04 C47.21 -7.05, 55.29 -4.06, 67.27 0.38" stroke="#5c940d" stroke-width="1.5" fill="none"></path></g></g><g stroke-linecap="round"><g transform="translate(43 127.79585774739581) rotate(0 1 57.5)"><path d="M0 0 C0.33 19.17, 1.67 95.83, 2 115 M0 0 C0.33 19.17, 1.67 95.83, 2 115" stroke="#364fc7" stroke-width="1" fill="none"></path></g><g transform="translate(43 127.79585774739581) rotate(0 1 57.5)"><path d="M-8.75 86.99 C-5.17 96.31, -1.6 105.63, 2 115 M-8.75 86.99 C-4.85 97.16, -0.94 107.33, 2 115" stroke="#364fc7" stroke-width="1" fill="none"></path></g><g transform="translate(43 127.79585774739581) rotate(0 1 57.5)"><path d="M11.77 86.64 C8.52 96.07, 5.27 105.51, 2 115 M11.77 86.64 C8.22 96.93, 4.68 107.23, 2 115" stroke="#364fc7" stroke-width="1" fill="none"></path></g></g></svg>